<?xml version="1.0" encoding="UTF-8" standalone="no"?>
<!-- Created with Inkscape (http://www.inkscape.org/) -->

<svg
   xmlns:dc="http://purl.org/dc/elements/1.1/"
   xmlns:cc="http://creativecommons.org/ns#"
   xmlns:rdf="http://www.w3.org/1999/02/22-rdf-syntax-ns#"
   xmlns:svg="http://www.w3.org/2000/svg"
   xmlns="http://www.w3.org/2000/svg"
   xmlns:sodipodi="http://sodipodi.sourceforge.net/DTD/sodipodi-0.dtd"
   xmlns:inkscape="http://www.inkscape.org/namespaces/inkscape"
   version="1.1"
   width="702.34991"
   height="485.98669"
   viewBox="0 0 198.21876 137.15625"
   id="svg2"
   xml:space="preserve"
   style="fill-rule:evenodd"
   inkscape:version="0.48.3.1 r9886"
   sodipodi:docname="Stadium.svg"><sodipodi:namedview
   pagecolor="#ffffff"
   bordercolor="#666666"
   borderopacity="1"
   objecttolerance="10"
   gridtolerance="10"
   guidetolerance="10"
   inkscape:pageopacity="0"
   inkscape:pageshadow="2"
   inkscape:window-width="1440"
   inkscape:window-height="823"
   id="namedview9"
   showgrid="false"
   fit-margin-top="0"
   fit-margin-left="0"
   fit-margin-right="0"
   fit-margin-bottom="0"
   inkscape:zoom="0.94173101"
   inkscape:cx="332.51722"
   inkscape:cy="175.34191"
   inkscape:window-x="-2"
   inkscape:window-y="-3"
   inkscape:window-maximized="1"
   inkscape:current-layer="svg2" /><metadata
   id="metadata14"><rdf:RDF><cc:Work
       rdf:about=""><dc:format>image/svg+xml</dc:format><dc:type
         rdf:resource="http://purl.org/dc/dcmitype/StillImage" /><dc:title /></cc:Work></rdf:RDF></metadata>
 <defs
   id="defs4"><style
   type="text/css"
   id="style6" />
  
  
 </defs>
 <path
   inkscape:connector-curvature="0"
   style="fill:#605d5c;fill-opacity:0.49261086;stroke:#1f1a17;stroke-width:0.0762"
   id="path10"
   d="m 198.18275,28.49575 -18.0507,0 0,7.443 c 3.4781,2.8517 5.217,5.9819 5.217,9.3906 0,4.0692 -2.4693,7.7556 -7.4431,11.0945 l 0,12.1033 2.3304,-1.4258 6.9559,0 c -3.0604,3.5475 -6.1561,6.504 -9.2863,8.8689 l 0,9.9816 2.3304,-1.4258 6.9559,0 c -3.0604,3.5475 -6.1561,6.5039 -9.2863,8.8688 l 0,10.3991 2.3304,-1.4259 6.9559,0 c -11.0251,12.8338 -26.9196,19.8245 -47.6832,21.0072 l 0,-8.1734 c 4.4521,-0.3825 8.6257,-0.974 12.4164,-1.7389 l 0,-9.356 c -3.9299,0.6609 -8.0686,1.1477 -12.4164,1.4262 l 0,-8.1385 c 4.4521,-0.4173 8.6257,-1.0088 12.4164,-1.7392 l 0,-8.9732 c -3.9299,0.6959 -8.0686,1.1477 -12.4164,1.4262 l 0,-8.1384 c 4.4521,-0.4174 8.6257,-1.0089 12.4164,-1.7393 l 0,-11.6162 c -17.4592,4.3474 -37.1099,6.5036 -58.986201,6.5036 -19.9289,0 -39.4752,-2.1562 -58.7086,-6.5036 l 0,11.3032 c 4.5564,0.939 9.0775,1.6349 13.5641,2.0523 l 0,8.1384 c -4.8341,-0.2785 -9.3556,-0.8002 -13.5641,-1.6349 l 0,8.9732 c 3.9998,0.8002 8.5213,1.4608 13.5641,1.9479 l 0,8.1385 c -4.8341,-0.2785 -9.3556,-0.8002 -13.5641,-1.6349 l 0,9.2862 c 4.5564,0.9391 9.0775,1.6349 13.5641,2.0174 l 0,8.1734 c -20.798,-1.1827 -36.6925,-8.1734 -47.68310036,-21.0072 l 7.02569996,0 1.1128,0.7304 0,-10.6077 c -2.7823,-2.226 -5.4951,-4.904 -8.13849996,-7.9647 l 7.02569996,0 1.1128,0.7304 0,-10.1904 c -2.7823,-2.226 -5.4951,-4.9039 -8.13849996,-7.9647 l 7.02569996,0 1.1128,0.7304 0,-10.8164 c -5.1472,-3.3738 -7.75559996,-7.3038 -7.75559996,-11.686 0,-3.0608 1.14769996,-5.8779 3.37329996,-8.4864 l 0,-18.2245 16.7292004,8.3472 c 5.3563,-1.9131 11.721,-3.5131 19.1291,-4.8695 l 0,-17.6334 19.6852,9.7734 -18.0507,0 0,7.547 c 15.6858,-2.7823 32.7626,-4.1736 51.1612,-4.1736 l 0,-17.529 19.754701,9.8777 -18.015801,0 0,7.6513 c 17.981301,0.0698 34.501401,1.6349 49.526301,4.6608 l 0,-15.8945 19.755,9.9122 -18.0507,0 0,6.2953 c 15.2336,3.1996 26.2241,7.2339 33.0407,12.1379 l 0,-16.1028 z m -63.6819,100.896 c 0,1.2172 -0.6261,2.0174 -1.8432,2.4348 -3.4432,3.5126 -7.1995,5.2863 -11.1993,5.2863 -2.1213,0 -4.556,-0.6609 -7.3382,-2.0173 -3.2695,-1.6345 -4.8695,-3.3734 -4.7996,-5.217 l -31.997701,0 c -1.3565,4.2085 -5.9474,6.3302 -13.7379,6.3302 -4.4172,0 -7.6862,-1.4957 -9.773,-4.4866 -1.1132,-0.4872 -1.6349,-1.2521 -1.6349,-2.3304 l 0,-48.7265 c 0,-1.0084 0.9045,-1.5301 2.7477,-1.5301 l 12.4164,1.5301 c 8.4166,0.9042 17.0767,1.3215 25.9805,1.3215 8.833901,0 17.494101,-0.4173 25.980501,-1.3215 l 12.5557,-1.5301 c 1.7737,0 2.643,0.8692 2.643,2.5386 z m 37.5968,-57.804 0,-11.7904 c -3.8606,1.8782 -8.521,3.617 -13.9466,5.1821 l 0,11.8253 c 4.7298,-1.287 9.3905,-3.0259 13.9466,-5.217 z m -20.7985,-43.4052 c -9.0077,-1.9475 -20.0332,-3.4781 -33.0058,-4.556 l -9.2517,29.9454 c 10.2253,0.3475 18.851,1.1128 25.7719,2.33 z m 20.7985,60.8299 0,-9.2513 c -4.0693,2.2256 -8.7296,4.0692 -13.9466,5.4951 l 0,8.9732 c 4.7298,-1.287 9.3905,-3.0259 13.9466,-5.217 z m 0,17.842 0,-9.6686 c -4.0693,2.2256 -8.7296,4.0692 -13.9466,5.495 l 0,9.3557 c 4.7298,-1.2866 9.3905,-2.991 13.9466,-5.1821 z m -58.778,-83.5409 c -8.6253,-0.6261 -15.372401,-0.9391 -20.172101,-0.9391 -4.9039,0 -10.9556,0.2432 -18.155,0.7304 l 4.5909,30.4671 c 8.6253,-0.2785 17.4592,-0.313 26.502201,-0.1043 z m 62.9515,19.4416 c 0,-5.7037 -6.782,-10.1903 -20.3811,-13.4249 l -18.8505,26.989 6.6428,1.8436 c -12.5901,2.5042 -29.4237,3.7563 -50.534801,3.7563 -17.1465,0 -32.102,-1.1478 -44.9357,-3.4782 l 3.1302,-1.2171 -19.6504,-28.2066 c -14.5381,3.304 -21.8069004,7.8949 -21.8069004,13.7379 0,8.2428 12.1034004,14.2945 36.2752004,18.2594 15.616,2.574 31.2669,3.8606 46.9876,3.8606 15.198701,0 30.814701,-1.3215 46.848401,-3.9649 24.1719,-4.0693 36.2752,-10.121 36.2752,-18.1551 z m -99.644101,10.9211 -7.5474,-30.154 c -12.7639,1.0084 -23.7195,2.4692 -32.797,4.3822 l 17.216,28.7278 c 5.7037,-1.4952 13.4248,-2.5041 23.1284,-2.956 z m 55.439101,28.1018 -0.2086,-0.1043 -12.347,1.5306 c -8.2079,0.9041 -16.9379,1.3215 -26.189201,1.3215 -11.4079,0 -24.2762,-0.9391 -38.6056,-2.8521 l 0,47.718 1.0085,0.5911 c 1.5651,2.4348 4.1736,3.6868 7.8604,3.6868 3.2694,0 6.9907,-1.0433 11.1992,-3.0607 l 0,-24.4499 c 0,-0.9046 0.4868,-1.3565 1.4258,-1.3565 1.9825,0 4.8691,0.1389 8.7296,0.3825 3.8261,0.2436 6.7476,0.3479 8.6951,0.3479 1.9131,0 4.6953,-0.1043 8.416601,-0.3479 3.6868,-0.2436 6.504,-0.3825 8.417,-0.3825 0.939,0 1.4258,0.4519 1.4258,1.3565 l 0,24.4499 0.9042,0.2785 c 2.5739,2.4692 5.4605,3.6864 8.6601,3.6864 3.2695,0 6.7476,-1.7389 10.5038,-5.1821 z m -115.052001,-53.4912 -11.5119004,0 0,6.8515 c 2.7823,-2.5386 6.6079004,-4.7996 11.5119004,-6.8515 z m 10.9905,48.1005 0,-11.3036 c -5.495,-1.4952 -10.1558,-3.1301 -13.9465,-4.9039 l 0,10.8168 c 4.4167,2.1562 9.0775,3.9649 13.9465,5.3907 z m 0,17.529 0,-8.9732 c -5.1475,-1.4258 -9.8079,-3.3737 -13.9465,-5.9124 l 0,9.3906 c 4.7647,2.3649 9.425,4.208 13.9465,5.495 z m 0,17.7377 0,-9.2862 c -5.1475,-1.4258 -9.8079,-3.3738 -13.9465,-5.9124 l 0,9.773 c 4.4167,2.1911 9.0775,3.9998 13.9465,5.4256 z m 131.955001,-62.1513 -5.0777,-1.635 3.8605,-3.895 z m -27.4064,-13.5642 -0.3824,3.7563 -6.1215,-0.3829 0.9045,-4.2779 z m -35.231801,2.1563 -7.443,0 0,-4.3823 7.443,0 z m -34.9537,1.2171 -6.1215,0.3829 -0.4174,-3.7563 5.5999,-0.9045 z m 44.309401,61.6301 -26.571701,0 c 0,-3.2694 1.4259,-5.8779 4.3474,-7.8255 2.539,-1.6349 5.5649,-2.4696 9.0775,-2.4696 3.4083,0 6.3647,0.8696 8.868801,2.5391 2.8521,1.9824 4.278,4.556 4.278,7.756 z m -72.446501,-52.2741 -5.1821,0.8348 3.1651,-4.6953 z"
   clip-path="none"
   sodipodi:nodetypes="cccsccccccccccccccccccccccccsccccccccccccccccccccccccscccccccccccccccccccccscscccscssccsccsscccccccccccccccccccccsccccscccscccscscsccccccccscccscsscscssccscccccccccccccccccccccccccccccccccccccccccccscccccc" />
</svg>